<svg width="277" height="111" viewBox="0 0 277 111" fill="none" xmlns="http://www.w3.org/2000/svg">
<path d="M6.00187 6.01201C6.0009 6.00579 6.00586 6.00024 6.01215 6.00049L256.148 16.0432C256.152 16.0433 256.156 16.0467 256.157 16.0512L270.998 92.0756C270.999 92.0816 270.995 92.0872 270.988 92.0876L21.4032 105C21.3981 105 21.3936 104.996 21.3928 104.991L6.00187 6.01201Z" fill="#5A423B" fill-opacity="0.91"/>
<path d="M256.268 13.0456L256.268 13.0456C257.658 13.1015 258.834 14.1037 259.102 15.4765C259.102 15.477 259.102 15.4776 259.102 15.4782L273.942 91.5009L273.943 91.5039C274.291 93.2975 272.973 94.9889 271.143 95.0835L256.268 13.0456ZM256.268 13.0456L6.1325 3.0029C4.23919 2.92689 2.74607 4.5988 3.03749 6.47297L18.4284 105.452C18.6645 106.97 20.0107 108.076 21.5582 107.996C21.5586 107.996 21.559 107.995 21.5595 107.995L271.143 95.0836L256.268 13.0456ZM270.834 89.0915L270.833 89.0916L270.834 89.0915ZM256.148 16.0429L256.148 16.043L256.148 16.0429Z" stroke="#613C61" stroke-opacity="0.45" stroke-width="6"/>
<path d="M63 67.2C62.4667 67.2 61.9867 67.12 61.56 66.96V65.76C61.56 61.68 61.6933 55.76 61.96 48L62.12 44.12C61.7733 43.6667 61.4267 42.96 61.08 42C60.76 41.0133 60.6 40.4133 60.6 40.2C60.6 39.96 60.6267 39.8133 60.68 39.76C60.7333 39.7067 61.4 39.64 62.68 39.56C63.9867 39.4533 65.32 39.4 66.68 39.4C68.0667 39.4 68.84 39.4667 69 39.6C73.72 50.16 76.12 55.5467 76.2 55.76C76.3067 55.9733 76.3867 56.08 76.44 56.08L76.6 55.8V54.68C76.6 52.4133 76.52 49.5867 76.36 46.2C76.2267 42.8133 76.08 40.7067 75.92 39.88C76.2933 39.5333 76.9733 39.24 77.96 39C78.9733 38.7333 79.88 38.6 80.68 38.6C81.5067 38.6 81.92 38.6667 81.92 38.8C81.92 39.3333 81.8267 39.96 81.64 40.68C81.4533 41.4 81.36 41.7733 81.36 41.8C81.1733 43 81.08 44.88 81.08 47.44C81.08 49.9733 81.08 51.8 81.08 52.92C81.1067 54.04 81.12 55.12 81.12 56.16C81.1467 57.1733 81.1733 58.1867 81.2 59.2C81.2267 60.1867 81.24 61.0933 81.24 61.92C81.2933 63.68 81.32 64.9067 81.32 65.6L81.36 66.16C81.36 66.24 81.1867 66.3467 80.84 66.48C79.8 66.9067 78.4 67.12 76.64 67.12L75.16 66.96C74.0933 63.9467 72.5333 60.1467 70.48 55.56C68.4267 50.9733 67.28 48.5067 67.04 48.16C66.8 47.7867 66.6533 47.6 66.6 47.6L66.48 47.88C66.3733 48.6267 66.32 50.24 66.32 52.72C66.32 55.1733 66.3733 57.8533 66.48 60.76C66.6133 63.6667 66.76 65.4933 66.92 66.24C66.2 66.88 64.8933 67.2 63 67.2ZM90.9713 41.04L90.6513 52.04C90.6513 58.9733 92.1179 62.44 95.0513 62.44C95.9313 62.44 96.6779 62.2667 97.2913 61.92C97.9046 61.5467 98.4646 60.88 98.9713 59.92C100.011 58.0533 100.531 54.4533 100.531 49.12C100.531 43.76 100.385 40.1867 100.091 38.4C100.385 38.2667 100.758 38.2 101.211 38.2C103.211 38.2 104.545 38.5467 105.211 39.24C105.451 40.44 105.571 44.24 105.571 50.64C105.571 57.1733 104.491 61.6533 102.331 64.08C101.265 65.28 100.105 66.12 98.8513 66.6C97.6246 67.08 96.1979 67.32 94.5713 67.32C91.3979 67.32 89.0913 66.12 87.6513 63.72C86.2113 61.2933 85.4913 57.12 85.4913 51.2C85.4913 48.96 85.5179 47.2133 85.5713 45.96C85.6513 44.7067 85.6779 44.0667 85.6513 44.04C85.4913 43.7467 85.2913 43.24 85.0513 42.52C84.8379 41.8 84.7313 41.28 84.7313 40.96C84.7313 40.8533 84.9846 40.6933 85.4913 40.48C86.7979 39.9733 88.0113 39.72 89.1313 39.72C90.2513 39.72 90.8379 39.7467 90.8913 39.8C90.9446 39.8533 90.9713 40.2667 90.9713 41.04ZM113.644 62.8L113.924 46.16C113.924 44.8 113.884 44.0933 113.804 44.04C113.751 43.96 113.537 43.92 113.164 43.92C112.337 43.92 110.871 44.0533 108.764 44.32L107.684 44.48L107.564 43.44C107.564 42.16 107.777 41.04 108.204 40.08L108.444 39.6C110.524 39.5733 112.871 39.4933 115.484 39.36C118.124 39.2 120.497 39.12 122.604 39.12C124.737 39.12 125.804 39.1733 125.804 39.28C125.804 40.0533 125.737 40.9867 125.604 42.08C125.471 43.1467 125.311 43.7733 125.124 43.96C124.511 43.8267 123.377 43.76 121.724 43.76C120.071 43.76 119.204 43.8 119.124 43.88C118.937 44.0667 118.844 47.5467 118.844 54.32C118.844 61.0933 119.244 65.2133 120.044 66.68V66.72C120.044 66.96 119.524 67.1867 118.484 67.4C117.444 67.6133 116.617 67.72 116.004 67.72C115.151 67.72 114.457 67.6 113.924 67.36C113.737 67.1467 113.644 65.6267 113.644 62.8ZM138 67.2C137.467 67.2 136.987 67.12 136.56 66.96V65.76C136.56 61.68 136.693 55.76 136.96 48L137.12 44.12C136.773 43.6667 136.427 42.96 136.08 42C135.76 41.0133 135.6 40.4133 135.6 40.2C135.6 39.96 135.627 39.8133 135.68 39.76C135.733 39.7067 136.4 39.64 137.68 39.56C138.987 39.4533 140.32 39.4 141.68 39.4C143.067 39.4 143.84 39.4667 144 39.6C148.72 50.16 151.12 55.5467 151.2 55.76C151.307 55.9733 151.387 56.08 151.44 56.08L151.6 55.8V54.68C151.6 52.4133 151.52 49.5867 151.36 46.2C151.227 42.8133 151.08 40.7067 150.92 39.88C151.293 39.5333 151.973 39.24 152.96 39C153.973 38.7333 154.88 38.6 155.68 38.6C156.507 38.6 156.92 38.6667 156.92 38.8C156.92 39.3333 156.827 39.96 156.64 40.68C156.453 41.4 156.36 41.7733 156.36 41.8C156.173 43 156.08 44.88 156.08 47.44C156.08 49.9733 156.08 51.8 156.08 52.92C156.107 54.04 156.12 55.12 156.12 56.16C156.147 57.1733 156.173 58.1867 156.2 59.2C156.227 60.1867 156.24 61.0933 156.24 61.92C156.293 63.68 156.32 64.9067 156.32 65.6L156.36 66.16C156.36 66.24 156.187 66.3467 155.84 66.48C154.8 66.9067 153.4 67.12 151.64 67.12L150.16 66.96C149.093 63.9467 147.533 60.1467 145.48 55.56C143.427 50.9733 142.28 48.5067 142.04 48.16C141.8 47.7867 141.653 47.6 141.6 47.6L141.48 47.88C141.373 48.6267 141.32 50.24 141.32 52.72C141.32 55.1733 141.373 57.8533 141.48 60.76C141.613 63.6667 141.76 65.4933 141.92 66.24C141.2 66.88 139.893 67.2 138 67.2ZM171.411 67.2C167.438 67.2 164.491 66.0533 162.571 63.76C160.678 61.4667 159.731 58.5867 159.731 55.12C159.731 53.44 159.931 51.8667 160.331 50.4C160.731 48.9333 161.105 47.8933 161.451 47.28C161.798 46.6667 162.078 46.3067 162.291 46.2C162.505 46.0667 163.345 46 164.811 46H165.571C165.571 44.6667 165.825 43.5067 166.331 42.52C166.865 41.5333 167.545 40.8 168.371 40.32C169.918 39.44 171.385 39 172.771 39C180.185 39 183.891 43.6667 183.891 53C183.891 55.9067 183.398 58.4933 182.411 60.76C181.851 62.04 181.118 63.1467 180.211 64.08C179.305 64.9867 178.091 65.7333 176.571 66.32C175.078 66.9067 173.358 67.2 171.411 67.2ZM178.731 52.68C178.731 46.4133 176.865 43.28 173.131 43.28C172.065 43.28 171.238 43.5867 170.651 44.2C170.091 44.8133 169.811 45.6 169.811 46.56C169.811 47.4933 170.105 48.6 170.691 49.88C171.305 51.16 171.918 52.1733 172.531 52.92L173.411 54.04C173.411 54.36 172.918 54.6667 171.931 54.96C170.945 55.2267 170.158 55.36 169.571 55.36C169.438 55.36 169.158 55.1067 168.731 54.6C168.331 54.0933 167.851 53.32 167.291 52.28C166.758 51.2133 166.371 50.0933 166.131 48.92C165.731 49.32 165.411 50.1333 165.171 51.36C164.931 52.5867 164.811 53.7733 164.811 54.92C164.811 57.16 165.438 59.08 166.691 60.68C167.945 62.2533 169.531 63.04 171.451 63.04C176.305 63.04 178.731 59.5867 178.731 52.68ZM216.054 38.56C216.054 41.2 215.547 44.8133 214.534 49.4C213.52 53.96 212.48 57.9333 211.414 61.32C210.347 64.7067 209.654 66.5467 209.334 66.84C209.014 67.16 208.267 67.44 207.094 67.68C205.947 67.92 205.067 68.04 204.454 68.04C203.84 68.04 203.534 68 203.534 67.92C203.48 67.7067 203.227 66.3467 202.774 63.84C201.44 56.8267 200.68 53.1067 200.494 52.68C200.307 52.2267 200.187 52 200.134 52L199.934 52.24C199.267 53.8933 198.507 56.48 197.654 60C196.827 63.4933 196.414 65.4933 196.414 66C196.414 66.1067 196.16 66.2533 195.654 66.44C194.267 66.9467 192.907 67.2 191.574 67.2C191.28 67.2 191.094 67.16 191.014 67.08C190.294 66.36 189.187 62.44 187.694 55.32C186.227 48.1733 185.494 43.1467 185.494 40.24C185.494 40.1867 185.627 40.08 185.894 39.92C186.8 39.4667 187.787 39.2533 188.854 39.28C189.947 39.28 190.494 39.3067 190.494 39.36C190.68 42.8267 191.067 46.48 191.654 50.32C192.267 54.1333 192.854 56.7467 193.414 58.16C193.467 58.3467 193.52 58.44 193.574 58.44C193.654 58.44 193.734 58.3467 193.814 58.16C196 49.7067 197.334 45.2267 197.814 44.72C198.774 44.3467 200.12 44.16 201.854 44.16C202.814 44.2133 203.334 44.28 203.414 44.36C203.494 44.44 203.76 45.56 204.214 47.72C204.667 49.8533 205.16 52.2267 205.694 54.84C206.227 57.4267 206.547 58.9867 206.654 59.52C206.787 60.0267 206.96 60 207.174 59.44C207.627 58.1867 208.2 55.9067 208.894 52.6C209.587 49.2933 209.934 46.1733 209.934 43.24C209.934 42.9467 209.68 42.6667 209.174 42.4C208.694 42.1067 208.2 41.9333 207.694 41.88C207.667 41.8 207.654 41.64 207.654 41.4C207.654 41.1333 207.707 40.76 207.814 40.28C207.947 39.7733 208.054 39.48 208.134 39.4C210.56 38.76 212.987 38.44 215.414 38.44C215.84 38.4933 216.054 38.5333 216.054 38.56Z" fill="white"/>
</svg>
