<svg width="108" height="65" viewBox="0 0 108 65" fill="none" xmlns="http://www.w3.org/2000/svg">
<path d="M6.00162 6.01141C6.00077 6.00539 6.00544 6 6.01152 6H101.99C101.996 6 102 6.00448 102 6.01V58.99C102 58.9955 101.996 59 101.99 59H13.5515C13.5466 59 13.5423 58.9963 13.5416 58.9914L6.00162 6.01141Z" fill="#FFD9FF" fill-opacity="0.82"/>
<path d="M101.99 3H6.01152C4.17981 3 2.77364 4.6219 3.03155 6.43411L10.5716 59.4141C10.7825 60.8961 12.0514 62 13.5515 62H101.99C103.652 62 105 60.653 105 58.99V6.01C105 4.34679 103.652 3 101.99 3Z" stroke="#613C61" stroke-opacity="0.45" stroke-width="6"/>
<path d="M70.9003 20.6401L65.6186 45.2494C65.2201 46.9863 64.1809 47.4186 62.7042 46.6003L54.6566 40.7413L50.7735 44.4312C50.3438 44.8557 49.9843 45.2108 49.1561 45.2108L49.7343 37.1132L64.6497 23.7973C65.2982 23.2261 64.5091 22.9096 63.6418 23.4808L45.2027 34.9518L37.2645 32.497C35.5377 31.9644 35.5065 30.791 37.6239 29.9728L68.6735 18.1544C70.1111 17.6218 71.3691 18.4709 70.9003 20.6401Z" fill="black"/>
</svg>
