<svg width="108" height="65" viewBox="0 0 108 65" fill="none" xmlns="http://www.w3.org/2000/svg">
<path d="M6.00162 6.01141C6.00077 6.00539 6.00544 6 6.01152 6H101.99C101.996 6 102 6.00448 102 6.01V58.99C102 58.9955 101.996 59 101.99 59H13.5515C13.5466 59 13.5423 58.9963 13.5416 58.9914L6.00162 6.01141Z" fill="#FFD9FF" fill-opacity="0.82"/>
<path d="M101.99 3H6.01152C4.17981 3 2.77364 4.6219 3.03155 6.43411L10.5716 59.4141C10.7825 60.8961 12.0514 62 13.5515 62H101.99C103.652 62 105 60.653 105 58.99V6.01C105 4.34679 103.652 3 101.99 3Z" stroke="#613C61" stroke-opacity="0.45" stroke-width="6"/>
<path d="M69.9912 23.975C70.016 24.325 70.016 24.675 70.016 25.025C70.016 35.6999 61.9735 48 47.2742 48C42.7456 48 38.5387 46.6749 35 44.375C35.6434 44.45 36.262 44.475 36.9302 44.475C40.6668 44.475 44.1066 43.2 46.8535 41.025C43.3395 40.95 40.3947 38.625 39.3801 35.425C39.875 35.4999 40.3699 35.55 40.8896 35.55C41.6073 35.55 42.3249 35.4499 42.9931 35.275C39.3306 34.5249 36.5837 31.275 36.5837 27.35V27.25C37.6477 27.85 38.8852 28.225 40.1966 28.275C38.0437 26.8249 36.6332 24.35 36.6332 21.5499C36.6332 20.05 37.0291 18.675 37.722 17.475C41.6567 22.375 47.5711 25.5749 54.203 25.925C54.0793 25.325 54.005 24.7 54.005 24.075C54.005 19.625 57.5685 16 61.9981 16C64.2995 16 66.3781 16.975 67.8382 18.55C69.6446 18.2 71.3769 17.525 72.9112 16.6C72.3172 18.475 71.0552 20.05 69.3972 21.05C71.0057 20.8751 72.5648 20.425 74 19.8C72.9113 21.4 71.5502 22.8249 69.9912 23.975Z" fill="black"/>
</svg>
