<svg width="152" height="61" viewBox="0 0 152 61" fill="none" xmlns="http://www.w3.org/2000/svg">
<path d="M6.00274 6.01219C6.00133 6.00594 6.00609 6 6.01249 6H145.99C145.996 6 146 6.00448 146 6.01V54.99C146 54.9955 145.996 55 145.99 55H17.008C17.0033 55 16.9993 54.9968 16.9982 54.9922L6.00274 6.01219Z" fill="#FFD9FF" fill-opacity="0.82"/>
<path d="M6.01249 3C4.08405 3 2.65325 4.78796 3.07559 6.66931L14.071 55.6488C14.071 55.649 14.0711 55.6491 14.0711 55.6493C14.3804 57.0273 15.6036 58 17.008 58H145.99C147.654 58 149 56.6509 149 54.99V6.01C149 4.34993 147.655 3 145.99 3H6.01249Z" stroke="#613C61" stroke-opacity="0.45" stroke-width="6"/>
<path d="M54.064 26.592L57.256 26.568C58.44 26.568 59.032 26.584 59.032 26.616C59.032 24.52 59.064 22.992 59.128 22.032C59.192 21.072 59.224 20.576 59.224 20.544C59.224 20.512 59.336 20.432 59.56 20.304C59.8 20.176 60.128 20.056 60.544 19.944C60.96 19.816 61.312 19.752 61.6 19.752C61.904 19.752 62.056 19.784 62.056 19.848C61.88 22.2 61.792 24.712 61.792 27.384C61.792 30.04 61.872 32.016 62.032 33.312C62.192 34.608 62.544 35.528 63.088 36.072C63.088 36.104 63.008 36.184 62.848 36.312C62.704 36.44 62.344 36.592 61.768 36.768C61.208 36.944 60.68 37.032 60.184 37.032L59.896 36.984C59.592 36.68 59.376 36.056 59.248 35.112C59.136 34.152 59.072 32.144 59.056 29.088C58.784 29.072 57.912 29.064 56.44 29.064C54.984 29.064 54.184 29.088 54.04 29.136C54.024 29.584 54.016 30.576 54.016 32.112C54.016 33.632 54.08 34.904 54.208 35.928C54.208 36.104 53.952 36.248 53.44 36.36C52.928 36.488 52.448 36.552 52 36.552C51.568 36.552 51.304 36.504 51.208 36.408C51.128 36.328 51.088 34.864 51.088 32.016V29.184C50.88 28.992 50.64 28.624 50.368 28.08C50.096 27.536 49.96 27.088 49.96 26.736C49.96 26.688 50.352 26.664 51.136 26.664C51.152 25.528 51.16 24.224 51.16 22.752V22.248C50.744 21.48 50.536 20.72 50.536 19.968C50.536 19.904 50.544 19.864 50.56 19.848C50.656 19.832 50.744 19.824 50.824 19.824C50.904 19.824 51.08 19.824 51.352 19.824C51.64 19.824 52.04 19.88 52.552 19.992C53.064 20.088 53.472 20.2 53.776 20.328C54.08 20.456 54.232 20.56 54.232 20.64C54.12 21.424 54.064 23.248 54.064 26.112V26.592ZM74.9663 31.008C74.9663 32.528 74.5023 33.848 73.5743 34.968C72.6623 36.072 71.4143 36.624 69.8303 36.624C68.2623 36.624 67.0303 36.136 66.1343 35.16C65.2383 34.184 64.7903 32.92 64.7903 31.368C64.7903 29.8 65.3423 28.416 66.4463 27.216C67.5663 26 69.0703 25.392 70.9583 25.392C71.7263 25.424 72.1423 25.472 72.2063 25.536C72.2703 25.6 72.3023 25.752 72.3023 25.992C72.3023 26.232 72.2783 26.496 72.2303 26.784C72.4703 26.784 72.7743 26.928 73.1423 27.216C73.5263 27.488 73.8383 27.768 74.0783 28.056C74.3183 28.344 74.5263 28.752 74.7023 29.28C74.8783 29.792 74.9663 30.368 74.9663 31.008ZM71.4623 29.328C71.0943 29.088 70.7343 28.968 70.3823 28.968H70.1903C70.1583 28.904 70.1423 28.768 70.1423 28.56C70.1423 28.352 70.1663 28.152 70.2143 27.96C69.5583 27.96 68.9423 28.256 68.3663 28.848C67.8063 29.44 67.5263 30.264 67.5263 31.32C67.5263 32.568 67.9263 33.432 68.7263 33.912C69.0303 34.104 69.4463 34.2 69.9743 34.2C70.5183 34.2 71.0223 33.952 71.4863 33.456C71.9663 32.96 72.2063 32.224 72.2063 31.248C72.2063 30.272 71.9583 29.632 71.4623 29.328ZM77.0633 33.024L76.9913 27.384C76.9913 26.36 77.0313 25.808 77.1113 25.728C77.3033 25.552 77.5993 25.392 77.9993 25.248C78.3993 25.088 78.7833 25.008 79.1513 25.008C79.5193 25.008 79.7033 25.04 79.7033 25.104C79.6393 25.808 79.6073 26.344 79.6073 26.712C79.6073 27.08 79.6233 27.264 79.6553 27.264C79.6873 27.264 79.7353 27.232 79.7993 27.168C79.8633 27.088 79.9753 26.976 80.1353 26.832C80.3113 26.672 80.6233 26.464 81.0713 26.208C81.5353 25.936 81.9593 25.8 82.3433 25.8C83.3833 25.8 84.1673 26.264 84.6953 27.192C85.6073 25.912 86.6153 25.272 87.7193 25.272C88.7113 25.272 89.4233 25.696 89.8553 26.544C90.3033 27.488 90.5673 28.432 90.6473 29.376C90.7433 30.752 90.7913 32.176 90.7913 33.648L90.6953 36.456C90.6953 36.568 90.4313 36.672 89.9033 36.768C89.3753 36.88 88.9513 36.936 88.6313 36.936L87.8633 36.816C88.0393 35.232 88.1273 33.952 88.1273 32.976C88.1273 32 88.1113 31.304 88.0793 30.888C88.0633 30.456 88.0073 30.032 87.9113 29.616C87.8153 29.184 87.6633 28.88 87.4553 28.704C87.2633 28.512 87.0153 28.416 86.7113 28.416C86.4073 28.416 86.1353 28.504 85.8953 28.68C85.6553 28.84 85.4793 29 85.3673 29.16C85.2713 29.32 85.2233 29.424 85.2233 29.472C85.2713 29.984 85.2953 31.168 85.2953 33.024L85.1993 34.92C85.1993 35.048 84.9433 35.16 84.4313 35.256C83.9193 35.352 83.5033 35.4 83.1833 35.4L82.4153 35.28C82.5593 33.984 82.6313 32.776 82.6313 31.656C82.6313 30.52 82.5673 29.728 82.4393 29.28C82.3273 28.816 82.0153 28.584 81.5033 28.584C80.9913 28.584 80.5593 28.84 80.2073 29.352C79.8553 29.864 79.6793 30.256 79.6793 30.528V31.032L79.7033 33.576C79.7033 35.144 79.6713 35.968 79.6073 36.048C79.2073 36.432 78.3673 36.624 77.0873 36.624C76.9593 36.624 76.8953 36.6 76.8953 36.552C77.0073 35.864 77.0633 34.688 77.0633 33.024ZM98.494 28.368C98.494 27.904 98.246 27.672 97.75 27.672C97.094 27.672 96.518 28.008 96.022 28.68C95.526 29.352 95.278 30.16 95.278 31.104C95.278 31.328 95.31 31.44 95.374 31.44C95.95 31.424 96.614 31.096 97.366 30.456C98.118 29.8 98.494 29.104 98.494 28.368ZM100.582 36C100.038 36.368 98.974 36.552 97.39 36.552C95.806 36.552 94.59 36.08 93.742 35.136C92.894 34.192 92.47 32.936 92.47 31.368C92.47 29.784 92.974 28.416 93.982 27.264C95.006 26.096 96.438 25.512 98.278 25.512C99.03 25.512 99.718 25.712 100.342 26.112C100.982 26.512 101.302 27.216 101.302 28.224C101.302 29.216 100.862 30.2 99.982 31.176C99.118 32.152 97.934 32.896 96.43 33.408C96.43 33.6 96.622 33.76 97.006 33.888C97.406 34 97.798 34.056 98.182 34.056C99.398 34.056 100.358 33.84 101.062 33.408C101.078 33.392 101.102 33.384 101.134 33.384C101.166 33.384 101.182 33.536 101.182 33.84C101.182 34.768 100.982 35.488 100.582 36Z" fill="black"/>
</svg>
